<svg width="19" height="25" viewBox="0 0 19 25" fill="none" xmlns="http://www.w3.org/2000/svg">
<path d="M9.5 0C4.26104 0 0 4.17051 0 9.29815C0 11.1166 0.458195 12.4211 1.42297 13.817L8.95745 24.7183C9.01749 24.805 9.09833 24.8761 9.19291 24.9252C9.28749 24.9743 9.39293 25 9.5 25C9.60707 25 9.71251 24.9743 9.80709 24.9252C9.90167 24.8761 9.98251 24.805 10.0425 24.7183L17.577 13.817C18.5418 12.4211 19 11.1166 19 9.29815C19 4.17051 14.739 0 9.5 0ZM9.5 1.2825C14.0308 1.2825 17.6897 4.86364 17.6897 9.29815C17.6897 10.926 17.3627 11.8456 16.4919 13.1056L9.5 23.2253L2.50807 13.1056C1.63731 11.8457 1.31034 10.926 1.31034 9.29815C1.31034 4.86364 4.96922 1.2825 9.5 1.2825ZM9.5 4.48876C6.97487 4.48876 4.91379 6.50605 4.91379 8.97753C4.91379 11.449 6.97487 13.4663 9.5 13.4663C12.0251 13.4663 14.0862 11.449 14.0862 8.97753C14.0862 6.50605 12.0251 4.48876 9.5 4.48876ZM9.5 5.77127C11.317 5.77127 12.7759 7.19917 12.7759 8.97753C12.7759 10.7558 11.317 12.1838 9.5 12.1838C7.68304 12.1838 6.22414 10.7558 6.22414 8.97753C6.22414 7.19917 7.68304 5.77127 9.5 5.77127Z" fill="#455E46"/>
</svg>
