<svg width="42" height="42" viewBox="0 0 42 42" fill="none" xmlns="http://www.w3.org/2000/svg">
<path d="M21 0C9.41333 0 0 9.41332 0 21C0 32.5867 9.41333 42 21 42C32.5867 42 42 32.5867 42 21C42 9.41332 32.5867 0 21 0ZM21 1.90909C31.5549 1.90909 40.0909 10.4451 40.0909 21C40.0909 26.5651 37.7217 31.5773 33.9311 35.0646C31.7228 28.0807 26.7441 23.3864 21 23.3864C15.2559 23.3864 10.2772 28.0807 8.06889 35.0646C4.27827 31.5773 1.90909 26.5651 1.90909 21C1.90909 10.4451 10.4451 1.90909 21 1.90909ZM21 7.15909C17.321 7.15909 14.3182 10.162 14.3182 13.8409C14.3182 17.5199 17.321 20.5227 21 20.5227C24.679 20.5227 27.6818 17.5199 27.6818 13.8409C27.6818 10.162 24.679 7.15909 21 7.15909ZM21 9.06818C23.6472 9.06818 25.7727 11.1937 25.7727 13.8409C25.7727 16.4881 23.6472 18.6136 21 18.6136C18.3528 18.6136 16.2273 16.4881 16.2273 13.8409C16.2273 11.1937 18.3528 9.06818 21 9.06818ZM21 25.2955C25.8719 25.2955 30.4115 29.5252 32.3203 36.3771C29.1536 38.7115 25.2419 40.0909 21 40.0909C16.7581 40.0909 12.8464 38.7115 9.67969 36.3771C11.5885 29.5252 16.1281 25.2955 21 25.2955Z" fill="#455E46"/>
</svg>
