<svg width="35" height="42" viewBox="0 0 35 42" fill="none" xmlns="http://www.w3.org/2000/svg">
<path d="M17.5497 0C15.7012 0 14.419 0.680552 13.473 1.3945C12.5271 2.10845 11.8662 2.78722 10.7386 3.232C10.3393 3.37669 10.05 3.77905 10.0426 4.2H0V6.3H35V4.2H24.9574C24.95 3.77905 24.6607 3.37669 24.2614 3.232C23.126 2.78533 22.4306 2.1023 21.4938 1.3945C20.5571 0.686694 19.3114 0 17.5497 0ZM17.5497 2.1C18.8161 2.1 19.4009 2.46324 20.2012 3.06794C20.6252 3.38829 21.0877 3.79963 21.6596 4.2H13.3073C13.8789 3.79517 14.3415 3.38808 14.7656 3.06794C15.5586 2.46944 16.1651 2.1 17.5497 2.1ZM2.12121 7.35C2.12121 16.9804 2.12121 26.611 2.12121 36.2414C2.12121 37.9874 2.57976 39.4899 3.62926 40.5234C4.67876 41.5569 6.19243 42 7.97112 42H27.062C28.8201 42 30.3288 41.5569 31.3707 40.5234C32.4126 39.4899 32.8788 37.9874 32.8788 36.2414C32.8788 26.611 32.8788 16.9804 32.8788 7.35C22.2191 7.35 11.2658 7.35 2.12121 7.35ZM4.24242 9.45H30.7576V36.2414C30.7576 37.6364 30.4229 38.4912 29.8793 39.0305C29.3356 39.5697 28.4642 39.9 27.062 39.9H7.97112C6.54324 39.9 5.66834 39.5697 5.12074 39.0305C4.57313 38.4912 4.24242 37.6364 4.24242 36.2414V9.45ZM9.01515 15.225V34.125H11.1364V15.225H9.01515ZM16.4394 15.225V34.125H18.5606V15.225H16.4394ZM23.8636 15.225V34.125H25.9848V15.225H23.8636Z" fill="#455E46"/>
</svg>
