<svg width="35" height="42" viewBox="0 0 35 42" fill="none" xmlns="http://www.w3.org/2000/svg">
<path d="M17.4981 40.0315H26.4943C27.3559 40.0315 28.1424 39.7242 28.7388 39.2061C29.3391 38.6854 29.7544 37.9525 29.8708 37.109L32.9873 14.4543C33.0571 13.9477 33.0235 13.4656 32.8877 13.0168C32.7531 12.5694 32.5164 12.149 32.18 11.7658C31.8424 11.3814 31.4569 11.0908 31.0299 10.8979C30.6043 10.7051 30.1282 10.6074 29.6108 10.6074H26.4801V16.8342C26.4801 17.3781 26.0363 17.8191 25.4891 17.8191C24.9419 17.8191 24.4982 17.3781 24.4982 16.8342V10.6074H10.4954V16.8342C10.4954 17.3781 10.0516 17.8191 9.50442 17.8191C8.95719 17.8191 8.51346 17.3781 8.51346 16.8342V10.6074H5.38276C4.86529 10.6074 4.38921 10.7051 3.96359 10.8979C3.53668 11.0908 3.14987 11.3814 2.81351 11.7658C2.47845 12.149 2.24041 12.5681 2.10587 13.0168C1.97003 13.4656 1.9364 13.9477 2.00626 14.4543L5.12273 37.109C5.23916 37.9538 5.65443 38.6854 6.2547 39.2061C6.85108 39.7242 7.63764 40.0315 8.49923 40.0315H17.4955H17.4981ZM8.52122 8.63761C8.59755 6.29627 9.59109 4.17609 11.1539 2.62162C12.7813 1.00416 15.0271 0 17.4981 0C19.969 0 22.2148 1.00416 23.8423 2.62162C25.405 4.17609 26.3986 6.29627 26.4749 8.63761H29.6108C30.409 8.63761 31.1567 8.79575 31.8424 9.10561C32.5267 9.41419 33.1386 9.87192 33.6665 10.4724C34.1956 11.0754 34.5694 11.7401 34.7842 12.4537C34.9989 13.1673 35.0546 13.9246 34.9459 14.714L31.8294 37.3688C31.6457 38.7021 30.9898 39.858 30.0403 40.6821C29.0868 41.5089 27.8449 42 26.4956 42H8.50441C7.1551 42 5.91187 41.5076 4.95972 40.6821C4.01016 39.858 3.35427 38.7021 3.17057 37.3688L0.0540952 14.714C-0.0545738 13.9259 0.00105467 13.1673 0.215805 12.4537C0.430556 11.7401 0.804429 11.0754 1.33354 10.4724C1.86007 9.87192 2.47327 9.41419 3.15763 9.10561C3.84328 8.79575 4.59103 8.63761 5.38923 8.63761H8.5251H8.52122ZM24.493 8.63761C24.4179 6.84014 23.6469 5.21111 22.4425 4.01408C21.1734 2.75277 19.4231 1.96975 17.4981 1.96975C15.5744 1.96975 13.8227 2.75277 12.5536 4.01408C11.3492 5.21111 10.5769 6.84014 10.5031 8.63761H24.493Z" fill="#455E46"/>
</svg>
