<svg width="50" height="58" viewBox="0 0 50 58" fill="none" xmlns="http://www.w3.org/2000/svg">
<path d="M2.77 49.6C2.77 49.46 2.93 49.3467 3.25 49.26C3.57 49.1733 3.91667 49.13 4.29 49.13C4.66333 49.13 4.94667 49.28 5.14 49.58C5.34 49.88 5.44 50.2133 5.44 50.58C5.44 50.9467 5.28333 51.58 4.97 52.48C4.66333 53.3733 4.39667 53.82 4.17 53.82C4.07667 53.82 3.99667 53.79 3.93 53.73C3.87 53.6767 3.84 53.6067 3.84 53.52C3.84 53.04 3.97333 52.3533 4.24 51.46C3.92667 51.86 3.58333 52.1833 3.21 52.43C2.84333 52.6767 2.46333 52.8 2.07 52.8C1.68333 52.8 1.27667 52.63 0.85 52.29C0.423333 51.95 0.21 51.5767 0.21 51.17C0.21 50.45 0.423333 49.6533 0.85 48.78C1.27667 47.9 1.81667 47.15 2.47 46.53C3.12333 45.91 3.74 45.6 4.32 45.6C4.52 45.6 4.72667 45.7567 4.94 46.07C5.16 46.3833 5.27 46.67 5.27 46.93C5.27 47.05 5.22667 47.11 5.14 47.11C5.12667 47.11 5.06333 47.0967 4.95 47.07C4.83667 47.0433 4.69667 47.03 4.53 47.03C4.08333 47.03 3.62667 47.26 3.16 47.72C2.69333 48.1733 2.31333 48.7333 2.02 49.4C1.72667 50.0667 1.58 50.6933 1.58 51.28C1.58 51.4533 1.69333 51.54 1.92 51.54C2.23333 51.54 2.61667 51.4 3.07 51.12C3.53 50.84 3.88333 50.5267 4.13 50.18C3.98333 50.1867 3.80333 50.19 3.59 50.19C3.38333 50.19 3.19333 50.1267 3.02 50C2.85333 49.8733 2.77 49.74 2.77 49.6ZM6.7668 49.41L6.7068 48.28C6.7068 47.9067 6.82346 47.72 7.0568 47.72C7.19013 47.72 7.32013 47.77 7.4468 47.87C7.58013 47.97 7.68013 48.1267 7.7468 48.34C7.97346 48.14 8.22013 47.98 8.4868 47.86C8.76013 47.7333 9.00013 47.67 9.2068 47.67C9.69346 47.67 9.9368 47.7867 9.9368 48.02C9.9368 48.14 9.91346 48.23 9.8668 48.29C9.8268 48.3433 9.79346 48.3833 9.7668 48.41C9.7468 48.4367 9.7068 48.4733 9.6468 48.52C9.59346 48.56 9.55346 48.59 9.5268 48.61C9.37346 48.71 9.26346 48.78 9.1968 48.82C8.8968 49.0067 8.64013 49.2333 8.4268 49.5C8.21346 49.76 8.05346 50.1233 7.9468 50.59C7.7668 51.3567 7.59013 51.93 7.4168 52.31C7.25013 52.6833 7.06013 52.87 6.8468 52.87C6.64013 52.87 6.48346 52.77 6.3768 52.57C6.2768 52.37 6.2268 52.1833 6.2268 52.01C6.2268 51.83 6.29013 51.5633 6.4168 51.21C6.55013 50.8567 6.64013 50.5533 6.6868 50.3C6.74013 50.04 6.7668 49.7433 6.7668 49.41ZM14.3198 49.59C14.3198 49.9167 14.0965 50.21 13.6498 50.47C13.2098 50.73 12.7565 50.86 12.2898 50.86C11.8232 50.86 11.4398 50.8267 11.1398 50.76C11.0798 50.94 11.0498 51.12 11.0498 51.3C11.0498 51.48 11.0798 51.61 11.1398 51.69C11.1998 51.7633 11.3498 51.8 11.5898 51.8C12.0898 51.8 12.5165 51.7533 12.8698 51.66C13.2298 51.5667 13.4165 51.52 13.4298 51.52C13.7032 51.52 13.8398 51.61 13.8398 51.79C13.8398 52.05 13.6232 52.2967 13.1898 52.53C12.7632 52.7633 12.2665 52.88 11.6998 52.88C11.1398 52.88 10.6898 52.7033 10.3498 52.35C10.0098 51.9967 9.83984 51.58 9.83984 51.1C9.83984 50.6133 9.97984 50.1067 10.2598 49.58C10.5465 49.0533 10.9032 48.6133 11.3298 48.26C11.7565 47.9 12.1798 47.72 12.5998 47.72C13.0265 47.72 13.4198 47.93 13.7798 48.35C14.1398 48.7633 14.3198 49.1767 14.3198 49.59ZM13.1598 49.43C13.1598 49.3633 13.0898 49.2667 12.9498 49.14C12.8098 49.0133 12.6765 48.95 12.5498 48.95C12.4298 48.95 12.2732 49.04 12.0798 49.22C11.8865 49.3933 11.7032 49.62 11.5298 49.9C11.5898 49.9067 11.6765 49.91 11.7898 49.91C12.7032 49.91 13.1598 49.75 13.1598 49.43ZM19.2027 49.59C19.2027 49.9167 18.9793 50.21 18.5327 50.47C18.0927 50.73 17.6393 50.86 17.1727 50.86C16.706 50.86 16.3227 50.8267 16.0227 50.76C15.9627 50.94 15.9327 51.12 15.9327 51.3C15.9327 51.48 15.9627 51.61 16.0227 51.69C16.0827 51.7633 16.2327 51.8 16.4727 51.8C16.9727 51.8 17.3993 51.7533 17.7527 51.66C18.1127 51.5667 18.2993 51.52 18.3127 51.52C18.586 51.52 18.7227 51.61 18.7227 51.79C18.7227 52.05 18.506 52.2967 18.0727 52.53C17.646 52.7633 17.1493 52.88 16.5827 52.88C16.0227 52.88 15.5727 52.7033 15.2327 52.35C14.8927 51.9967 14.7227 51.58 14.7227 51.1C14.7227 50.6133 14.8627 50.1067 15.1427 49.58C15.4293 49.0533 15.786 48.6133 16.2127 48.26C16.6393 47.9 17.0627 47.72 17.4827 47.72C17.9093 47.72 18.3027 47.93 18.6627 48.35C19.0227 48.7633 19.2027 49.1767 19.2027 49.59ZM18.0427 49.43C18.0427 49.3633 17.9727 49.2667 17.8327 49.14C17.6927 49.0133 17.5593 48.95 17.4327 48.95C17.3127 48.95 17.156 49.04 16.9627 49.22C16.7693 49.3933 16.586 49.62 16.4127 49.9C16.4727 49.9067 16.5593 49.91 16.6727 49.91C17.586 49.91 18.0427 49.75 18.0427 49.43ZM23.2855 47.72C23.6321 47.72 23.9355 47.8767 24.1955 48.19C24.4621 48.4967 24.5955 48.8267 24.5955 49.18C24.5955 49.7467 24.5021 50.34 24.3155 50.96C24.1355 51.5733 23.9355 52.0467 23.7155 52.38C23.5021 52.7133 23.2821 52.88 23.0555 52.88C22.8355 52.88 22.7255 52.7233 22.7255 52.41C22.7255 52.17 22.8355 51.6867 23.0555 50.96C23.2221 50.36 23.3055 49.93 23.3055 49.67C23.3055 49.41 23.2721 49.28 23.2055 49.28C23.1188 49.28 23.0321 49.3233 22.9455 49.41C22.8655 49.4967 22.7988 49.5733 22.7455 49.64C22.6921 49.7067 22.6288 49.7933 22.5555 49.9C22.4888 50 22.4288 50.0933 22.3755 50.18C22.3288 50.26 22.2655 50.3667 22.1855 50.5C22.1121 50.6267 22.0521 50.7333 22.0055 50.82C21.9588 50.9 21.8988 51.0067 21.8255 51.14C21.2055 52.3 20.7188 52.88 20.3655 52.88C20.2255 52.88 20.0488 52.76 19.8355 52.52C19.6221 52.2733 19.5155 52.0933 19.5155 51.98C19.5155 51.9067 19.5621 51.75 19.6555 51.51C19.7555 51.2633 19.8255 51.0767 19.8655 50.95C19.9121 50.8167 19.9488 50.6767 19.9755 50.53C20.0088 50.3833 20.0355 50.2267 20.0555 50.06C20.0755 49.8867 20.0888 49.7533 20.0955 49.66C20.1088 49.5667 20.1221 49.42 20.1355 49.22C20.1955 48.3533 20.2455 47.8733 20.2855 47.78C20.3321 47.6867 20.3821 47.64 20.4355 47.64C20.6888 47.64 20.9321 47.7467 21.1655 47.96C21.3988 48.1667 21.5155 48.3567 21.5155 48.53C21.5155 48.9433 21.4088 49.5367 21.1955 50.31C21.6288 49.55 22.0221 48.93 22.3755 48.45C22.7355 47.9633 23.0388 47.72 23.2855 47.72ZM30.5626 52.51C30.5626 52.7833 30.3726 52.92 29.9926 52.92C29.4726 52.92 28.9259 52.65 28.3526 52.11C27.7859 51.57 27.3826 51.0067 27.1426 50.42C27.0359 50.74 26.9626 50.9567 26.9226 51.07C26.8826 51.1833 26.8226 51.3633 26.7426 51.61C26.6626 51.8567 26.5992 52.04 26.5526 52.16C26.5126 52.28 26.4659 52.4067 26.4126 52.54C26.3126 52.7933 26.2159 52.92 26.1226 52.92C25.9692 52.92 25.7826 52.7933 25.5626 52.54C25.3492 52.28 25.2426 52.07 25.2426 51.91C25.2426 51.75 25.3192 51.4533 25.4726 51.02C25.9259 49.6933 26.1859 48.4833 26.2526 47.39C26.1259 47.29 26.0126 47.15 25.9126 46.97C25.8126 46.79 25.7626 46.64 25.7626 46.52C25.7626 46.32 26.0192 46.11 26.5326 45.89C27.0526 45.67 27.6492 45.56 28.3226 45.56C29.0026 45.56 29.5692 45.72 30.0226 46.04C30.4759 46.36 30.7026 46.7767 30.7026 47.29C30.7026 47.67 30.5892 48.0367 30.3626 48.39C30.1426 48.7367 29.8992 49.01 29.6326 49.21C29.3726 49.4033 29.1292 49.58 28.9026 49.74C28.6826 49.9 28.5726 50.0033 28.5726 50.05C28.5726 50.21 28.6259 50.3633 28.7326 50.51C28.8392 50.65 28.9892 50.8167 29.1826 51.01C29.3759 51.1967 29.5426 51.3567 29.6826 51.49C29.8226 51.6167 29.9359 51.7233 30.0226 51.81C30.1159 51.8967 30.2059 51.9867 30.2926 52.08C30.4726 52.2533 30.5626 52.3967 30.5626 52.51ZM29.1626 47.39C29.1626 47.11 28.8892 46.97 28.3426 46.97C28.0826 46.97 27.7726 47.0433 27.4126 47.19C27.5792 47.4433 27.6626 47.6767 27.6626 47.89C27.6626 48.2767 27.6092 48.7033 27.5026 49.17C27.5759 49.1167 27.7126 49.0233 27.9126 48.89C28.1126 48.75 28.2659 48.64 28.3726 48.56C28.4859 48.4733 28.6126 48.3633 28.7526 48.23C29.0259 47.97 29.1626 47.69 29.1626 47.39ZM32.5584 51.86C32.9184 51.7 33.2318 51.3767 33.4984 50.89C33.7651 50.4033 33.8984 49.9467 33.8984 49.52C33.8984 49.0933 33.8384 48.8 33.7184 48.64C33.4318 48.8067 33.1451 49.1567 32.8584 49.69C32.5784 50.2233 32.4384 50.6933 32.4384 51.1C32.4384 51.5 32.4784 51.7533 32.5584 51.86ZM31.0984 51.2C31.0984 50.3667 31.3551 49.5767 31.8684 48.83C32.3884 48.0833 32.9018 47.71 33.4084 47.71C33.9151 47.71 34.3418 47.89 34.6884 48.25C35.0351 48.6033 35.2084 49.0333 35.2084 49.54C35.2084 50.04 35.0884 50.55 34.8484 51.07C34.6084 51.59 34.2718 52.0233 33.8384 52.37C33.4051 52.71 32.9418 52.88 32.4484 52.88C32.0818 52.88 31.7651 52.7167 31.4984 52.39C31.2318 52.0633 31.0984 51.6667 31.0984 51.2ZM37.119 51.86C37.479 51.7 37.7923 51.3767 38.059 50.89C38.3257 50.4033 38.459 49.9467 38.459 49.52C38.459 49.0933 38.399 48.8 38.279 48.64C37.9923 48.8067 37.7057 49.1567 37.419 49.69C37.139 50.2233 36.999 50.6933 36.999 51.1C36.999 51.5 37.039 51.7533 37.119 51.86ZM35.659 51.2C35.659 50.3667 35.9157 49.5767 36.429 48.83C36.949 48.0833 37.4623 47.71 37.969 47.71C38.4757 47.71 38.9023 47.89 39.249 48.25C39.5957 48.6033 39.769 49.0333 39.769 49.54C39.769 50.04 39.649 50.55 39.409 51.07C39.169 51.59 38.8323 52.0233 38.399 52.37C37.9657 52.71 37.5023 52.88 37.009 52.88C36.6423 52.88 36.3257 52.7167 36.059 52.39C35.7923 52.0633 35.659 51.6667 35.659 51.2ZM42.8595 48.91C42.8062 49.09 42.7262 49.3433 42.6195 49.67C42.5195 49.99 42.3929 50.3933 42.2395 50.88C42.0929 51.3667 42.0195 51.6267 42.0195 51.66C42.0195 51.6867 42.0729 51.7 42.1795 51.7C42.2929 51.7 42.5562 51.6267 42.9695 51.48C43.3829 51.3267 43.6262 51.25 43.6995 51.25C43.8662 51.25 43.9495 51.3633 43.9495 51.59C43.9495 51.8167 43.7262 52.09 43.2795 52.41C42.8329 52.7233 42.3662 52.88 41.8795 52.88C41.6662 52.88 41.4129 52.7633 41.1195 52.53C40.8262 52.2967 40.6795 52.06 40.6795 51.82C40.6795 51.62 40.7795 51.2 40.9795 50.56C41.1862 49.9133 41.3262 49.47 41.3995 49.23C41.1395 49.3033 40.9429 49.34 40.8095 49.34C40.6762 49.34 40.5362 49.25 40.3895 49.07C40.2429 48.8833 40.1695 48.7067 40.1695 48.54C40.1695 48.3267 40.6862 48.1467 41.7195 48C41.8462 47.38 41.9095 46.8433 41.9095 46.39C41.9095 46.19 42.0095 46.09 42.2095 46.09C42.3829 46.09 42.6029 46.1967 42.8695 46.41C43.1429 46.6167 43.2795 46.8233 43.2795 47.03C43.2795 47.23 43.2362 47.5133 43.1495 47.88C43.4695 47.8667 43.7129 47.86 43.8795 47.86C44.3795 47.86 44.6295 47.9733 44.6295 48.2C44.6295 48.3467 44.4829 48.4733 44.1895 48.58C43.9029 48.68 43.4595 48.79 42.8595 48.91ZM47.9713 47.73C48.2246 47.73 48.4746 47.88 48.7213 48.18C48.9679 48.48 49.0913 48.75 49.0913 48.99C49.0913 49.15 49.0213 49.23 48.8813 49.23C48.8013 49.23 48.6846 49.2 48.5313 49.14C48.3779 49.0733 48.2213 49.04 48.0613 49.04C47.9079 49.04 47.6779 49.0933 47.3713 49.2C47.0713 49.3067 46.9213 49.4467 46.9213 49.62C46.9213 49.6867 47.0113 49.7833 47.1913 49.91C47.3713 50.0367 47.5679 50.1667 47.7813 50.3C47.9946 50.4333 48.1913 50.62 48.3713 50.86C48.5513 51.0933 48.6413 51.35 48.6413 51.63C48.6413 51.9033 48.4379 52.18 48.0313 52.46C47.6313 52.74 47.1579 52.88 46.6113 52.88C46.0713 52.88 45.6079 52.7567 45.2213 52.51C44.8346 52.2633 44.6413 52.01 44.6413 51.75C44.6413 51.49 44.7479 51.36 44.9613 51.36C45.0479 51.36 45.1513 51.3933 45.2713 51.46C45.6046 51.6533 46.0179 51.75 46.5113 51.75C47.0113 51.75 47.2613 51.6833 47.2613 51.55C47.2613 51.4167 47.1646 51.27 46.9713 51.11C46.7846 50.9433 46.5779 50.79 46.3513 50.65C46.1313 50.51 45.9246 50.34 45.7313 50.14C45.5446 49.9333 45.4513 49.7333 45.4513 49.54C45.4513 49.18 45.7779 48.79 46.4313 48.37C47.0846 47.9433 47.5979 47.73 47.9713 47.73Z" fill="#455E46"/>
<path d="M39.5725 0.0123159C39.4184 0.0123159 39.2653 0.0145054 39.112 0.0123159C35.4339 0.130002 31.8891 1.70809 29.3038 4.49698C29.3038 4.49689 29.3038 4.49707 29.3038 4.49698C25.9226 8.14689 24.6874 13.3243 26.0348 18.1248C24.2831 21.0978 23.0016 24.3687 22.4781 28.0922C21.9809 26.7881 21.3738 25.5513 20.6805 24.3698C21.8286 20.2166 20.7535 15.7448 17.8301 12.5889C17.83 12.5887 17.8302 12.589 17.8301 12.5889C15.5863 10.1684 12.509 8.79772 9.3166 8.69564C8.25228 8.6628 7.17579 8.77008 6.11227 9.02516L6.29885 8.99779C6.12723 8.99777 5.96014 9.05352 5.82218 9.15685C5.68422 9.26017 5.58268 9.4056 5.53252 9.57172C4.25511 13.8043 5.31349 18.4089 8.30338 21.6362C11.1483 24.7045 15.3315 26.0847 19.392 25.3332C20.9649 28.0545 22.0301 31.0546 22.291 34.5316V41.1891C22.291 41.2956 22.3117 41.401 22.352 41.4994C22.3923 41.5978 22.4513 41.6872 22.5257 41.7625C22.6001 41.8378 22.6884 41.8975 22.7856 41.9383C22.8828 41.979 22.987 42 23.0922 42C23.3047 41.9999 23.5084 41.9145 23.6586 41.7624C23.8088 41.6103 23.8932 41.4041 23.8932 41.1891V29.9169C24.2004 25.8154 25.4653 22.2818 27.329 19.0805C32.0352 19.9837 36.8952 18.396 40.1936 14.838C43.64 11.1197 44.8581 5.81479 43.386 0.938205C43.3452 0.802907 43.2701 0.680773 43.1682 0.583934C43.0663 0.487094 42.9412 0.418917 42.8052 0.386175C41.7333 0.128907 40.6493 0.00136844 39.5736 0L39.5725 0.0123159ZM39.513 1.63365C40.3315 1.63255 41.156 1.71849 41.9753 1.8827C43.0735 6.07753 41.9726 10.5608 39.0246 13.7419C36.2473 16.7372 32.228 18.1488 28.2576 17.5971C30.4549 14.2625 33.2785 11.268 36.2835 8.32151C36.3597 8.24803 36.4208 8.16008 36.4634 8.0627C36.5059 7.96531 36.5292 7.8604 36.5317 7.75393C36.5342 7.64747 36.5159 7.54155 36.478 7.44222C36.4401 7.34289 36.3832 7.2521 36.3106 7.17502C36.2127 7.07291 36.0899 6.99866 35.9547 6.95975C35.8195 6.92084 35.6765 6.91862 35.5402 6.95334C35.4037 6.98834 35.2787 7.05914 35.1778 7.1586C32.2972 9.98334 29.5139 12.9203 27.2706 16.207C26.6754 12.3954 27.8309 8.47915 30.4822 5.61664C32.7742 3.14441 35.9131 1.74586 39.1717 1.64241C39.288 1.64241 39.404 1.64268 39.5222 1.64268L39.513 1.63365ZM8.97832 10.3186C9.07567 10.3189 9.17302 10.3205 9.2682 10.3186C12.0412 10.4062 14.7118 11.5965 16.6625 13.7006C18.8536 16.0661 19.8446 19.2773 19.4363 22.4313C17.5294 19.6897 15.1944 17.2306 12.7843 14.8673C12.6834 14.7678 12.5583 14.697 12.4217 14.6621C12.2854 14.6273 12.1424 14.6296 12.0072 14.6685C11.8719 14.7074 11.7492 14.7816 11.6513 14.8837C11.5787 14.9608 11.5218 15.0516 11.4839 15.1509C11.4459 15.2503 11.4277 15.3562 11.4302 15.4626C11.4327 15.5691 11.4559 15.674 11.4985 15.7714C11.5411 15.8688 11.6022 15.9567 11.6783 16.0302C14.2153 18.5181 16.5968 21.0404 18.4648 23.8366C15.1444 24.2401 11.8025 23.0364 9.48074 20.5321C6.98812 17.8426 6.04683 14.0588 6.95189 10.5088C7.62926 10.3775 8.31069 10.309 8.98725 10.3118L8.97832 10.3186Z" fill="#455E46"/>
</svg>
