<svg width="49" height="42" viewBox="0 0 49 42" fill="none" xmlns="http://www.w3.org/2000/svg">
<path d="M39.5725 0.0123159C39.4184 0.0123159 39.2653 0.0145054 39.112 0.0123159C35.4339 0.130002 31.8891 1.70809 29.3038 4.49698C29.3038 4.49689 29.3038 4.49707 29.3038 4.49698C25.9226 8.14689 24.6874 13.3243 26.0348 18.1248C24.2831 21.0978 23.0017 24.3687 22.4781 28.0922C21.9809 26.7881 21.3738 25.5513 20.6805 24.3698C21.8286 20.2166 20.7535 15.7448 17.8301 12.5889C17.8302 12.589 17.83 12.5887 17.8301 12.5889C15.5863 10.1684 12.509 8.79772 9.3166 8.69564C8.25228 8.6628 7.17579 8.77008 6.11227 9.02516L6.29885 8.99779C6.12723 8.99777 5.96014 9.05352 5.82218 9.15685C5.68422 9.26017 5.58268 9.4056 5.53252 9.57172C4.25511 13.8043 5.31349 18.4089 8.30338 21.6362C11.1483 24.7045 15.3315 26.0847 19.392 25.3332C20.9649 28.0545 22.0301 31.0546 22.291 34.5316V41.1891C22.291 41.2956 22.3117 41.401 22.352 41.4994C22.3923 41.5978 22.4513 41.6872 22.5257 41.7625C22.6001 41.8378 22.6884 41.8975 22.7856 41.9383C22.8828 41.979 22.987 42 23.0922 42C23.3047 41.9999 23.5084 41.9145 23.6586 41.7624C23.8088 41.6103 23.8932 41.4041 23.8932 41.1891V29.9169C24.2004 25.8154 25.4653 22.2818 27.329 19.0805C32.0352 19.9837 36.8952 18.396 40.1936 14.838C43.64 11.1197 44.8581 5.81479 43.386 0.938205C43.3452 0.802907 43.2701 0.680773 43.1682 0.583934C43.0663 0.487094 42.9412 0.418917 42.8052 0.386175C41.7333 0.128907 40.6492 0.00136844 39.5736 0L39.5725 0.0123159ZM39.513 1.63365C40.3315 1.63255 41.156 1.71849 41.9753 1.8827C43.0735 6.07753 41.9726 10.5608 39.0246 13.7419C36.2473 16.7372 32.228 18.1488 28.2576 17.5971C30.4549 14.2625 33.2785 11.268 36.2835 8.32151C36.3597 8.24803 36.4208 8.16008 36.4634 8.0627C36.5059 7.96532 36.5291 7.8604 36.5317 7.75393C36.5342 7.64747 36.5159 7.54155 36.478 7.44222C36.4401 7.34289 36.3832 7.2521 36.3106 7.17502C36.2127 7.07291 36.0899 6.99866 35.9547 6.95975C35.8195 6.92084 35.6765 6.91862 35.5402 6.95334C35.4037 6.98834 35.2787 7.05914 35.1778 7.1586C32.2972 9.98334 29.5139 12.9203 27.2706 16.207C26.6754 12.3954 27.8309 8.47915 30.4822 5.61664C32.7742 3.14441 35.9131 1.74586 39.1717 1.64241C39.288 1.64241 39.404 1.64268 39.5222 1.64268L39.513 1.63365ZM8.97832 10.3186C9.07567 10.3189 9.17301 10.3205 9.2682 10.3186C12.0412 10.4062 14.7118 11.5965 16.6625 13.7006C18.8536 16.0661 19.8446 19.2773 19.4363 22.4313C17.5294 19.6897 15.1944 17.2306 12.7843 14.8673C12.6834 14.7678 12.5583 14.697 12.4217 14.6621C12.2854 14.6273 12.1424 14.6296 12.0072 14.6685C11.8719 14.7074 11.7492 14.7816 11.6513 14.8837C11.5787 14.9608 11.5218 15.0516 11.4839 15.1509C11.4459 15.2503 11.4277 15.3562 11.4302 15.4626C11.4327 15.5691 11.4559 15.674 11.4985 15.7714C11.5411 15.8688 11.6022 15.9567 11.6783 16.0302C14.2153 18.5181 16.5968 21.0404 18.4648 23.8366C15.1444 24.2401 11.8025 23.0364 9.48074 20.5321C6.98812 17.8426 6.04683 14.0588 6.95189 10.5088C7.62926 10.3775 8.31069 10.309 8.98725 10.3118L8.97832 10.3186Z" fill="#455E46"/>
</svg>
