<svg width="35" height="25" viewBox="0 0 35 25" fill="none" xmlns="http://www.w3.org/2000/svg">
<path d="M34.3591 23.6776H30.4702V17.0146C32.6934 16.5016 34.3591 13.4036 34.3591 9.5358C34.3591 5.29334 32.3628 1.97151 29.8219 1.97151C27.5468 1.97151 25.7191 4.60253 25.3626 8.22029C24.7274 8.00981 24.0468 7.89142 23.3404 7.89142C22.8932 7.89142 22.4589 7.93746 22.0376 8.02297V7.89142C22.0376 2.88574 18.0191 0.215571 17.8505 0.103595C17.6366 -0.0345316 17.3643 -0.0345316 17.1505 0.103595C16.9819 0.215411 12.9633 2.88591 12.9633 7.89142C12.9633 7.93746 12.9633 7.9835 12.9698 8.03612C11.8809 7.81249 10.7272 7.87826 9.65129 8.23345C9.28833 4.63552 7.46057 1.97835 5.18539 1.97835C2.63818 1.97835 0.648148 5.30001 0.648148 9.54265C0.648148 13.4168 2.31388 16.5146 4.53704 17.0215V23.6845H0.648148C0.291665 23.6845 0 23.9805 0 24.3422C0 24.704 0.291665 25 0.648148 25H34.3519C34.7083 25 35 24.704 35 24.3422C35 23.9805 34.7083 23.6845 34.3519 23.6845L34.3591 23.6776ZM12.3221 21.0138C14.1693 20.8296 15.7961 19.8561 16.8593 18.4156V23.6776H12.3221V21.0138ZM18.1552 18.3959C19.2182 19.8364 20.8385 20.823 22.6924 21.0071V23.671H18.1552V18.3892V18.3959ZM23.9883 21.0138C26.2763 20.7835 28.2144 19.3299 29.1735 17.3172V23.6775H23.9883V21.0138ZM29.8214 3.2874C31.5779 3.2874 33.0622 6.14865 33.0622 9.53618C33.0622 12.4961 31.9279 15.0546 30.4696 15.6532V12.4368L31.74 11.1476C31.9927 10.8911 31.9927 10.4767 31.74 10.2202C31.4872 9.96367 31.0788 9.96364 30.8261 10.2202L30.4761 10.5754V9.20065C30.4761 8.83889 30.1844 8.5429 29.8279 8.5429C29.4715 8.5429 29.1798 8.83889 29.1798 9.20065V11.6146C28.6224 10.4372 27.7279 9.45719 26.6196 8.79287C26.8076 5.72114 28.2011 3.28077 29.8279 3.28077L29.8214 3.2874ZM28.5251 14.469C28.5251 17.1461 26.5418 19.3627 23.9879 19.6852V15.7255L25.2583 14.4363C25.5111 14.1798 25.5111 13.7654 25.2583 13.5089C25.0055 13.2524 24.5971 13.2524 24.3444 13.5089L23.9944 13.8641V12.4894C23.9944 12.1276 23.7027 11.8316 23.3462 11.8316C22.9898 11.8316 22.6981 12.1276 22.6981 12.4894V15.5085L21.9657 14.7652C21.7129 14.5087 21.3046 14.5087 21.0518 14.7652C20.7991 15.0218 20.799 15.4362 21.0518 15.6927L22.6981 17.3634V19.6787C20.1445 19.3564 18.1609 17.1398 18.1609 14.4625C18.1609 11.5618 20.4878 9.20049 23.3461 9.20049C26.2044 9.20049 28.5313 11.5618 28.5313 14.4625L28.5251 14.469ZM17.5068 1.46505C18.4142 2.17543 20.7476 4.35261 20.7476 7.89148C20.7476 8.08881 20.7411 8.27298 20.7281 8.45717C19.704 8.91762 18.8226 9.64113 18.155 10.5422V8.16776L19.5874 6.71413C19.8402 6.4576 19.8402 6.0432 19.5874 5.78671C19.3346 5.53021 18.9263 5.53018 18.6735 5.78671L18.1615 6.30634V5.2605C18.1615 4.89873 17.8698 4.60275 17.5133 4.60275C17.1568 4.60275 16.8652 4.89873 16.8652 5.2605V9.32541L15.8346 8.27957C15.5818 8.02304 15.1735 8.02304 14.9207 8.27957C14.668 8.53609 14.6679 8.9505 14.9207 9.20699L16.8652 11.1803V13.7455C15.8022 12.7194 14.2726 10.7527 14.2726 7.88487C14.2726 4.34617 16.6059 2.16903 17.5133 1.45844L17.5068 1.46505ZM13.1061 9.41747C13.6635 12.6734 15.8672 14.6926 16.7681 15.3964C16.3727 17.6722 14.5644 19.4021 12.3217 19.6852V17.3699L13.968 15.6992C14.2208 15.4426 14.2208 15.0282 13.968 14.7717C13.7152 14.5153 13.3069 14.5152 13.0541 14.7717L12.3217 15.515V12.4959C12.3217 12.1341 12.0301 11.8381 11.6736 11.8381C11.3171 11.8381 11.0254 12.1341 11.0254 12.4959V13.8706L10.6754 13.5154C10.4227 13.2589 10.0143 13.2589 9.76156 13.5154C9.50881 13.7719 9.50878 14.1863 9.76156 14.4428L11.0319 15.732V19.6851C9.20417 19.4549 7.65509 18.2709 6.93563 16.5476C8.58195 15.4426 9.72269 12.7853 9.73563 9.60849C10.8116 9.16121 12.0301 9.10202 13.1125 9.42431L13.1061 9.41747ZM1.95128 9.53587C1.95128 6.14842 3.43553 3.28709 5.19202 3.28709C6.94851 3.28709 8.43276 6.14833 8.43276 9.53587C8.43276 12.4957 7.29849 15.0543 5.84017 15.6529V12.7653L7.48648 11.0946C7.73926 10.8381 7.73926 10.4237 7.48648 10.1672C7.2337 9.91069 6.82535 9.91066 6.57261 10.1672L5.84021 10.9104V7.89133C5.84021 7.52957 5.54854 7.23358 5.19206 7.23358C4.83558 7.23358 4.54391 7.52957 4.54391 7.89133V9.26603L4.19391 8.91084C3.94113 8.65432 3.53278 8.65432 3.28003 8.91084C3.02729 9.16737 3.02725 9.58177 3.28003 9.83827L4.5504 11.1275V15.6596C3.09208 15.061 1.95781 12.5023 1.95781 9.54254L1.95128 9.53587ZM5.84017 17.3304C6.81241 19.3892 8.76333 20.7902 11.0254 21.0139V23.6778H5.84017V17.3304Z" fill="#455E46"/>
</svg>
