<svg width="85" height="42" viewBox="0 0 85 42" fill="none" xmlns="http://www.w3.org/2000/svg">
<path d="M82.0835 0.0596537C82.0238 0.0410121 81.9455 0.0186418 81.8859 0.0186418C81.8672 0.0186418 81.8448 0 81.8076 0H18.4745C18.4558 0 18.4334 0.0186418 18.4148 0.0186418C18.3365 0.0186418 18.2769 0.0372831 18.2172 0.0596537C16.8862 0.197602 15.8311 1.29377 15.8311 2.6658V39.3342C15.8311 40.8069 17.0241 42 18.4969 42H81.83C83.3027 42 84.4958 40.8069 84.4958 39.3342L84.4883 2.6658C84.4697 1.29377 83.4145 0.197668 82.0835 0.0596537ZM78.7839 1.98718L50.1501 23.1046L21.4944 1.98718H78.7839ZM18.213 39.9489C17.9744 39.8482 17.8141 39.6096 17.8141 39.3337L17.8178 2.6653C17.8178 2.38567 17.9967 2.14705 18.2354 2.05012L42.9129 20.244L18.213 39.9489ZM21.315 40.0085L44.5608 21.4558L49.5531 25.1357C49.7321 25.255 49.9297 25.3333 50.1497 25.3333C50.3696 25.3333 50.5672 25.2736 50.7462 25.1357L55.7385 21.4558L78.9843 40.0085H21.315ZM82.4824 39.33C82.4824 39.6096 82.3221 39.8258 82.0835 39.9451L57.3869 20.2403L82.0644 2.04645C82.303 2.14711 82.482 2.38573 82.482 2.66162L82.4824 39.33Z" fill="#455E46"/>
<path d="M6.54283 13.6607H13.9585C14.514 13.6607 14.954 13.2245 14.954 12.6652C14.954 12.1097 14.5178 11.6697 13.9585 11.6697L6.54283 11.6734C5.98731 11.6734 5.54733 12.1096 5.54733 12.6689C5.54733 13.2244 6.00592 13.6607 6.54283 13.6607Z" fill="#455E46"/>
<path d="M4.69402 19.209H13.9589C14.5145 19.209 14.9544 18.7727 14.9544 18.2135C14.9544 17.6579 14.5182 17.218 13.9589 17.218L4.69402 17.2217C4.13849 17.2217 3.69852 17.6579 3.69852 18.2172C3.69852 18.7727 4.13473 19.209 4.69402 19.209Z" fill="#455E46"/>
<path d="M14.9545 23.7837C14.9545 23.2282 14.5182 22.7882 13.959 22.7882H0.995501C0.439977 22.7882 0 23.2244 0 23.7837C0 24.3392 0.436216 24.7792 0.995501 24.7792H13.959C14.5145 24.7754 14.9545 24.3206 14.9545 23.7837Z" fill="#455E46"/>
<path d="M13.959 28.3364H6.54329C5.98777 28.3364 5.54779 28.7726 5.54779 29.3319C5.54779 29.8874 5.98401 30.3274 6.54329 30.3274H13.959C14.5145 30.3274 14.9545 29.8912 14.9545 29.3319C14.9545 28.7727 14.5145 28.3364 13.959 28.3364Z" fill="#455E46"/>
</svg>
